<svg height="299.9936" version="1.1" width="407.6" xmlns="http://www.w3.org/2000/svg" style="overflow: hidden; position: relative; left: -0.600037px; top: -0.599998px;" viewBox="0 0 407.6 299.9936" preserveAspectRatio="xMinYMin"><rect x="-2000" y="-1472" width="5000" height="3680" r="0" rx="0" ry="0" fill="#ffffff" stroke="none" transform="matrix(0.4076,0,0,0.4076,0,0)" stroke-width="2.453385672227674" style="-webkit-tap-highlight-color: rgba(0, 0, 0, 0); fill-opacity: 0;" fill-opacity="0"/>
<path fill="#3498db" stroke="#ffffff" d="M877.5,539.4L877.8,541L879.0999999999999,541.4L882.9999999999999,543.3L884.1999999999999,544.1999999999999L884.6999999999999,545.3L885.5999999999999,548.1999999999999L886.3,549.3L887.5999999999999,550.3L887.4999999999999,550.5L887.8999999999999,551L888.3999999999999,551.2L889.6999999999998,551L890.8999999999999,550.8L891.6999999999998,550.6999999999999L892.2999999999998,550.6999999999999L892.6999999999998,550.4999999999999L892.8999999999999,549.8999999999999L893.0999999999999,548.8999999999999L893.5999999999999,547.9999999999999L893.9999999999999,547.2999999999998L894.6999999999999,546.8999999999999L895.4999999999999,546.7999999999998L895.6999999999999,546.7999999999998L896.4999999999999,546.6999999999998L897.2999999999998,545.7999999999998L897.4999999999999,545.0999999999998L897.7999999999998,543.7999999999998L897.7999999999998,543.2999999999998L898.3999999999999,542.2999999999998L898.7999999999998,541.5999999999998L899.5999999999998,540.6999999999998L900.1999999999998,539.7999999999998L900.7999999999998,539.0999999999998L900.6999999999998,538.2999999999998L900.5999999999998,537.7999999999998L900.3999999999997,537.1999999999998L900.4999999999998,536.0999999999998L900.7999999999997,535.6999999999998L900.8999999999997,535.5999999999998L901.0999999999998,535.4999999999998L902.9999999999998,535.7999999999997L904.0999999999998,536.9999999999998L904.8999999999997,538.4999999999998L906.3999999999997,539.5999999999998L907.7999999999997,539.7999999999998L910.6999999999997,539.1999999999998L914.3999999999997,539.0999999999998L915.0999999999998,539.6999999999998L914.8999999999997,541.8999999999999L915.2999999999997,543.3999999999999L916.8999999999997,543.5999999999999L918.6999999999997,543.0999999999999L918.7999999999997,543.0999999999999L918.8999999999997,543.0999999999999L919.7999999999997,542.9999999999999L919.7999999999997,545.8999999999999L920.8999999999997,548.7999999999998L924.4999999999998,553.8999999999999L927.8999999999997,556.8999999999999L928.4999999999998,558.3999999999999L928.2999999999997,559.9999999999999L926.3999999999997,562.7999999999998L925.7999999999997,564.3999999999999L926.2999999999997,567.0999999999999L927.6999999999997,568.9999999999999L929.3999999999997,570.5999999999999L930.7999999999997,572.5999999999999L930.8999999999997,577.8999999999999L931.5999999999998,580.3999999999999L934.1999999999998,580.9999999999999L936.2999999999998,582.1999999999999L937.9999999999999,583.4999999999999L939.8999999999999,584.6999999999999L942.2999999999998,585.3L943.7999999999998,585.9L943.6999999999998,587L942.8999999999999,588.1L942.5999999999999,589L944.5999999999999,592L945.3999999999999,593.8L945.9999999999999,594.8L946.5999999999999,595.3L947.8999999999999,595.9L947.5999999999999,596.5L946.8,597.2L946.3,597.8000000000001L946.3,599.1L946,602L945.6,603.5L947.9,604L949.6,603.3L950.6,601.5L950.9,601.6L951.5,601.8000000000001L951.8,602.2L952.0999999999999,602.5L952.4999999999999,602.9L952.7999999999998,603L952.8999999999999,603L953.0999999999999,602.8L953.1999999999999,603.5L953.5999999999999,607.4L953.0999999999999,608.3L952.0999999999999,608.9L951.9999999999999,608.6999999999999L951.7999999999998,608.4999999999999L951.4999999999999,608.6999999999999L951.1999999999999,609.0999999999999L950.9999999999999,609.8L950.7999999999998,610L950.1999999999998,610L949.2999999999998,609.5L948.1999999999998,609.1L947.1999999999998,609.6L947.0999999999998,610.6L947.8999999999997,611.4L948.6999999999997,612.1999999999999L948.9999999999997,612.9999999999999L948.3999999999996,614.4999999999999L947.5999999999997,616.0999999999999L946.9999999999997,617.5999999999999L947.4999999999997,620.0999999999999L947.2999999999996,620.6999999999999L946.7999999999996,621.4L946.4999999999997,622.1999999999999L946.4999999999997,623.0999999999999L947.0999999999997,623.4999999999999L947.7999999999997,623.5999999999999L948.1999999999997,623.6999999999999L948.3999999999997,623.9L948.8999999999997,624.6L949.4999999999998,625.6L949.9999999999998,626.9L950.2999999999997,628.5L950.4999999999998,630.3L950.0999999999998,631.9L949.0999999999998,633L949.0999999999998,633.7L950.6999999999998,636.5L950.8999999999999,637.9L950.1999999999998,639.1999999999999L949.1999999999998,639.3L948.7999999999998,639.3L948.0999999999998,639.4L947.6999999999998,639.8L947.6999999999998,640.3L945.6999999999998,640.9L944.1999999999998,644.9L942.9999999999998,645.6999999999999L942.0999999999998,646.8L942.2999999999998,649L942.7999999999998,649.4L943.8999999999999,649.8L945.0999999999999,650.5999999999999L945.8,652.1999999999999L945.9,653.8L945.1,658.5L945.2,660.1L945.6,661.2L945.7,662.3000000000001L945.4000000000001,663.7L945.3000000000001,663.7L945.1,664.1L942.3000000000001,665.4L941.3000000000001,666.4L942.9000000000001,667L944.0000000000001,667.7L945.7000000000002,670.7L946.9000000000002,671.7L946.8000000000002,670.6L947.3000000000002,669.6L947.8000000000002,669.7L948.7000000000002,670L948.8000000000002,669.9L949.1000000000001,669.8L949.1000000000001,669.4L949.7000000000002,671L950.0000000000001,672.2L950.9000000000001,674.7L951.2,676.1L952.4000000000001,674.2L952.7,673.4000000000001L954.5,676.0000000000001L954.2,679.5000000000001L953.2,683.5000000000001L953,687.5000000000001L948.9,687.3000000000001L939.1999999999999,683.8000000000001L934.1999999999999,683.3000000000001L921.4999999999999,684.3000000000001L915.3999999999999,685.4000000000001L903.9999999999999,689.7L898.3999999999999,690.6L886.3999999999999,690.1L883.2999999999998,689.4L874.3999999999999,685.6999999999999L874.1999999999998,685.4L873.8999999999999,685.3L872.8999999999999,685.3L872.2999999999998,685.5L870.5999999999998,686.7L864.9999999999998,689.8000000000001L862.9999999999998,690.2L859.8999999999997,689.8000000000001L850.9999999999998,686.9000000000001L847.2999999999997,687.0000000000001L844.6999999999997,688.3000000000001L839.7999999999997,692.8000000000001L834.2999999999997,695.8000000000001L809.3999999999997,702.4000000000001L806.9999999999998,701.1000000000001L802.7999999999997,694.7000000000002L800.1999999999997,692.8000000000002L793.7999999999997,690.4000000000002L790.6999999999997,689.7000000000002L788.0999999999997,689.6000000000001L785.5999999999997,690.1000000000001L782.7999999999997,691.2000000000002L778.4999999999998,693.6000000000001L777.2999999999997,693.9000000000001L777.1999999999997,694.0000000000001L775.0999999999997,693.9000000000001L774.4999999999997,693.3000000000001L774.3999999999996,692.3000000000001L773.5999999999997,690.8000000000001L769.4999999999997,686.2L766.9999999999997,684.2L764.1999999999997,683L761.0999999999997,682.7L751.5999999999997,683.2L748.4999999999997,682.8000000000001L747.6999999999997,681.6L746.9999999999997,680.1L744.6999999999997,678.9L740.2999999999997,678.6L738.8999999999997,678.1L737.2999999999997,676.6L736.9999999999998,675.3000000000001L737.2999999999997,674.3000000000001L737.2999999999997,673.7L733.6999999999997,670.5L727.8999999999997,667.5L722.4999999999998,667.5L720.0999999999998,673.6L719.5999999999998,676.5L717.8999999999997,678L715.4999999999998,678.1L712.7999999999997,677.1L709.9999999999998,677.4L707.3999999999997,677.1999999999999L705.1999999999997,675.9999999999999L703.4999999999997,673.4999999999999L702.8999999999996,670.5999999999999L703.3999999999996,668.0999999999999L705.5999999999997,662.9999999999999L706.1999999999997,660.3999999999999L706.2999999999997,657.2999999999998L705.6999999999997,654.4999999999999L703.7999999999997,652.3999999999999L701.4999999999998,652.0999999999999L698.9999999999998,652.4999999999999L696.2999999999997,652.5999999999999L693.5999999999997,651.1999999999999L692.1999999999997,652.9L691.0999999999997,652.1L690.0999999999997,652L688.9999999999997,652.1L687.6999999999997,652.1L685.8999999999997,652.7L685.2999999999997,652.8000000000001L684.5999999999997,652.5000000000001L683.1999999999997,650.9000000000001L682.3999999999997,650.5000000000001L681.2999999999997,650.6000000000001L678.7999999999997,651.3000000000002L677.4999999999998,651.5000000000002L676.1999999999998,651.3000000000002L674.3999999999999,650.1000000000001L673.0999999999999,649.8000000000002L671.8,649.9000000000002L667.4,650.8000000000002L666.6999999999999,651.1000000000001L666.4,651.5000000000001L665.9,651.9000000000001L665.1,651.9000000000001L664.4,651.7L663.1,650.7L662.4,650.5L662,650.3L662.4,648L661.1999999999999,645L659.3,644.1L658.4,644.3000000000001L657.6999999999999,644.6L656.5999999999999,645.1L654.9999999999999,645.4L651.5999999999999,645.4L649.6999999999999,645.1L648.0999999999999,644.5L646.1999999999999,643.5L645.0999999999999,642.7L644.0999999999999,641.4000000000001L643.8,640.5000000000001L644,639.7000000000002L644.7,638.4000000000002L645,637.6000000000003L645.3,632.0000000000002L645.0999999999999,631.1000000000003L644.6999999999999,630.2000000000003L644.3,628.8000000000003L643.3,627.7000000000003L643,626.7000000000003L642.9,625.8000000000003L643.1,625.0000000000003L643.4,624.3000000000003L644.3,623.0000000000003L644.5999999999999,622.3000000000003L644.6999999999999,621.5000000000003L644.1999999999999,620.8000000000003L643.4999999999999,620.3000000000003L643.3999999999999,619.8000000000003L643.9999999999999,619.7000000000003L644.6999999999999,619.7000000000003L645.5999999999999,619.7000000000003L646.1999999999999,619.4000000000003L646.4,618.4000000000003L645.8,617.3000000000003L645.1999999999999,613.7000000000003L644.5999999999999,613.1000000000003L642.5999999999999,611.7000000000003L641.1999999999999,610.2000000000003L640.6999999999999,608.9000000000003L640.1999999999999,606.5000000000003L639.4999999999999,605.5000000000003L639.1999999999999,604.7000000000004L639.4,604.0000000000003L639.9,603.4000000000003L640.1999999999999,602.6000000000004L639.4999999999999,597.9000000000003L639.2999999999998,597.3000000000003L638.5999999999998,597.0000000000003L637.6999999999998,596.8000000000003L636.6999999999998,596.3000000000003L636.3999999999999,595.7000000000003L636.5999999999999,595.1000000000003L636.9999999999999,594.4000000000002L637.2999999999998,593.5000000000002L636.8999999999999,592.9000000000002L635.8999999999999,591.8000000000002L634.7999999999998,590.4000000000002L633.1999999999998,588.7000000000002L630.8999999999999,587.3000000000002L630.5999999999999,586.5000000000002L630.5999999999999,585.6000000000003L630.6999999999999,584.7000000000003L630.5999999999999,583.7000000000003L630.0999999999999,583.1000000000003L629.3,582.7000000000003L628.5,582.0000000000002L626.5,579.8000000000002L625.5,577.5000000000002L625.2,576.2000000000003L625.1,573.7000000000003L624.4,572.5000000000002L624.4,571.5000000000002L624.4,570.7000000000003L624.6999999999999,569.8000000000003L624.5999999999999,567.4000000000003L624.8,566.3000000000003L624.5999999999999,563.0000000000003L624.3,562.0000000000003L623.8,561.3000000000003L623.0999999999999,560.9000000000003L623.0999999999999,559.5000000000003L626.4999999999999,557.9000000000003L626.5999999999999,549.8000000000003L629.0999999999999,548.0000000000003L628.5999999999999,550.6000000000004L629.4999999999999,551.7000000000004L631.1999999999999,552.2000000000004L632.6999999999999,551.9000000000004L633.4999999999999,550.1000000000005L634.2999999999998,549.2000000000005L636.4999999999999,548.1000000000005L639.3999999999999,547.3000000000005L641.2999999999998,547.9000000000005L640.2999999999998,551.2000000000005L642.1999999999998,550.4000000000005L643.3999999999999,546.8000000000005L644.7999999999998,546.0000000000006L650.7999999999998,546.0000000000006L656.4999999999999,547.1000000000006L658.3999999999999,546.3000000000006L659.8999999999999,545.4000000000007L661.1999999999998,545.6000000000007L662.5999999999998,548.0000000000007L661.0999999999998,550.5000000000007L659.9999999999998,551.8000000000006L659.2999999999997,553.1000000000006L659.3999999999997,555.4000000000005L659.9999999999998,556.6000000000006L660.3999999999997,557.7000000000006L660.4999999999998,559.0000000000006L660.9999999999998,559.6000000000006L662.0999999999998,559.5000000000006L662.9999999999998,559.5000000000006L663.4999999999998,560.0000000000006L663.8999999999997,560.9000000000005L664.8999999999997,561.6000000000006L665.8999999999997,562.1000000000006L666.5999999999998,562.6000000000006L666.6999999999998,563.4000000000005L666.0999999999998,564.8000000000005L666.9999999999998,566.3000000000005L667.5999999999998,568.3000000000005L666.9999999999998,570.4000000000005L666.6999999999998,572.4000000000005L668.5999999999998,574.0000000000006L662.5999999999998,576.2000000000006L662.5999999999998,577.1000000000006L665.5999999999998,578.5000000000006L666.1999999999998,582.2000000000006L665.8999999999999,586.8000000000006L666.5999999999999,590.7000000000006L669.3999999999999,594.0000000000006L672.2999999999998,594.7000000000006L678.7999999999998,592.8000000000006L682.9999999999999,591.2000000000006L685.1999999999999,591.2000000000006L689.4999999999999,591.7000000000006L693.3999999999999,593.0000000000006L695.9999999999999,595.2000000000006L698.5999999999999,595.2000000000006L699.8999999999999,593.0000000000006L701.1999999999998,591.7000000000006L704.1999999999998,591.7000000000006L707.6999999999998,589.9000000000007L710.2999999999998,588.6000000000007L718.4999999999999,588.6000000000007L721.5999999999999,589.9000000000007L724.1999999999999,592.6000000000007L726.3,592.6000000000007L729.8,596.1000000000007L733.6999999999999,598.8000000000008L736.6999999999999,599.7000000000007L737.9999999999999,597.5000000000007L737.9999999999999,595.7000000000007L739.2999999999998,594.4000000000008L741.8999999999999,594.4000000000008L744.0999999999999,593.5000000000008L744.4999999999999,590.8000000000008L745.7999999999998,589.5000000000008L748.7999999999998,589.9000000000008L750.9999999999999,590.8000000000008L753.1999999999999,590.4000000000008L753.1999999999999,587.7000000000007L754.4999999999999,585.0000000000007L757.8999999999999,582.8000000000006L760.0999999999999,580.1000000000006L759.1999999999999,576.6000000000006L759.1999999999999,573.0000000000006L761.4,571.2000000000006L764.4,570.8000000000006L767.5,570.8000000000006L770.1,569.4000000000007L771.8000000000001,568.1000000000007L774.0000000000001,569.4000000000007L776.1000000000001,570.8000000000006L779.6000000000001,571.2000000000006L784.4000000000001,569.9000000000007L787.0000000000001,568.1000000000007L788.7000000000002,565.0000000000007L789.1000000000001,561.9000000000007L790.9000000000001,559.7000000000006L793.9000000000001,559.2000000000006L794.8000000000001,557.0000000000006L796.9000000000001,555.2000000000006L800.8000000000001,554.3000000000006L804.3000000000001,555.2000000000006L806.5000000000001,557.9000000000007L808.2000000000002,559.2000000000006L809.9000000000002,558.8000000000006L810.8000000000002,556.1000000000006L812.1000000000001,554.3000000000006L813.0000000000001,550.8000000000006L814.7000000000002,549.9000000000007L819.5000000000001,550.8000000000006L823.4000000000001,550.8000000000006L825.5000000000001,548.1000000000006L824.7000000000002,544.5000000000006L820.3000000000002,539.2000000000006L819.5000000000002,536.5000000000006L821.6000000000003,534.3000000000005L821.6000000000003,530.7000000000005L825.1000000000003,529.4000000000005L829.4000000000002,532.0000000000006L833.3000000000002,535.2000000000006L837.7000000000002,537.4000000000007L842.0000000000001,540.1000000000007L847.2000000000002,541.4000000000007L851.1000000000001,542.7000000000006L852.0000000000001,545.9000000000007L852.8000000000001,549.4000000000007L855.9000000000001,549.4000000000007L859.8000000000001,546.7000000000006L863.7,542.3000000000006L868.9000000000001,541.0000000000007L877.5000000000001,539.4000000000007Z" class="sm_state sm_state_SNKE" opacity="1" stroke-opacity="1" stroke-width="1.8750000000000002" stroke-linejoin="round" transform="matrix(0.4076,0,0,0.4076,0,0)" style="-webkit-tap-highlight-color: rgba(0, 0, 0, 0); opacity: 1; cursor: pointer; stroke-opacity: 1; stroke-linejoin: round; fill-opacity: 1;" fill-opacity="1"/></svg>