<svg height="299.9936" version="1.1" width="407.6" xmlns="http://www.w3.org/2000/svg" style="overflow: hidden; position: relative; left: -0.600037px; top: -0.599998px;" viewBox="0 0 407.6 299.9936" preserveAspectRatio="xMinYMin"><rect x="-2000" y="-1472" width="5000" height="3680" r="0" rx="0" ry="0" fill="#ffffff" stroke="none" transform="matrix(0.4076,0,0,0.4076,0,0)" stroke-width="2.453385672227674" style="-webkit-tap-highlight-color: rgba(0, 0, 0, 0); fill-opacity: 0;" fill-opacity="0"/>
<path fill="#3498db" stroke="#ffffff" d="M760.9,278.9L761.1999999999999,280L776.6999999999999,300.7L777.8,303.2L778.5,306.7L778.4,307.9L778.1999999999999,309.2L766.9,337.9L754.8,356.4L753,358.4L751.2,359.29999999999995L729,362.19999999999993L722.6,362.29999999999995L682.8000000000001,354.9L681.2,355.4L680,356L641.2,384L639.6,384.8L599.2,385.40000000000003L591.9000000000001,384.3L527.7,359.8L525.2,358.40000000000003L522.5,356.3L521.2,353.5L514.8000000000001,347.4L508.70000000000005,349.4L506.50000000000006,350.5L503.80000000000007,352.9L499.4000000000001,358.09999999999997L492.30000000000007,363.2L474.00000000000006,367.7L474.30000000000007,365.3L474.30000000000007,363.6L474.1000000000001,361.70000000000005L473.1000000000001,360.70000000000005L470.80000000000007,359.70000000000005L446.80000000000007,352.6L442.80000000000007,350.70000000000005L440.1000000000001,348.30000000000007L445.7000000000001,344.1000000000001L447.9000000000001,331.9000000000001L454.30000000000007,327.5000000000001L459.70000000000005,316.4000000000001L453.20000000000005,302.0000000000001L449.00000000000006,287.0000000000001L459.1000000000001,283.10000000000014L475.7000000000001,280.90000000000015L487.4000000000001,277.40000000000015L481.1000000000001,274.3000000000001L483.80000000000007,257.60000000000014L488.6000000000001,236.50000000000014L476.30000000000007,238.20000000000013L451.6000000000001,225.40000000000012L457.00000000000006,217.1000000000001L458.1000000000001,189.3000000000001L462.30000000000007,187.6000000000001L469.80000000000007,184.8000000000001L475.70000000000005,180.9000000000001L487.50000000000006,169.8000000000001L493.90000000000003,178.7000000000001L506.3,185.4000000000001L517.5,190.9000000000001L523.4,195.4000000000001L545.4,178.10000000000008L568.9,158.60000000000008L585.5,143.60000000000008L587.7,138.00000000000009L602.7,131.9000000000001L608.8000000000001,119.00000000000009L609.5000000000001,119.40000000000009L611.1000000000001,120.00000000000009L611.7000000000002,120.50000000000009L611.9000000000002,120.80000000000008L612.1000000000003,121.30000000000008L612.3000000000003,121.50000000000009L612.7000000000003,121.80000000000008L613.6000000000003,122.10000000000008L614.0000000000002,122.30000000000008L615.0000000000002,123.20000000000009L615.3000000000002,123.40000000000009L616.3000000000002,123.6000000000001L617.3000000000002,123.3000000000001L621.3000000000002,121.1000000000001L622.2000000000002,120.90000000000009L625.0000000000001,120.90000000000009L625.5000000000001,120.90000000000009L626.6000000000001,120.50000000000009L631.1000000000001,118.60000000000008L638.8000000000002,116.90000000000008L640.8000000000002,116.10000000000008L641.7000000000002,115.80000000000008L642.5000000000001,115.80000000000008L643.5000000000001,116.00000000000009L643.8000000000001,118.10000000000008L641.3000000000001,122.80000000000008L641.0000000000001,125.20000000000009L642.5000000000001,126.20000000000009L647.9000000000001,124.1000000000001L650.1000000000001,124.20000000000009L650.8000000000002,125.00000000000009L652.0000000000002,127.10000000000008L652.8000000000002,127.90000000000008L656.8000000000002,130.70000000000007L657.7000000000002,131.80000000000007L658.1000000000001,133.00000000000006L658.2000000000002,135.70000000000005L658.4000000000002,136.90000000000003L660.5000000000002,142.00000000000003L661.4000000000002,143.60000000000002L662.5000000000002,145.10000000000002L663.8000000000002,146.40000000000003L667.6000000000001,149.30000000000004L668.4000000000001,150.50000000000003L668.8000000000001,151.80000000000004L668.7,153.10000000000005L668.1,155.70000000000005L668.1,156.90000000000003L668.4,158.00000000000003L669,158.90000000000003L671.7,162.00000000000003L673,164.40000000000003L673.7,167.00000000000003L673.8000000000001,170.00000000000003L673.5000000000001,171.30000000000004L673.0000000000001,172.60000000000005L672.6000000000001,173.90000000000006L672.8000000000002,175.20000000000007L673.6000000000001,176.20000000000007L674.6000000000001,177.00000000000009L676.9000000000001,178.4000000000001L678.1000000000001,179.3000000000001L679.1000000000001,180.4000000000001L680.7000000000002,182.8000000000001L681.4000000000002,184.1000000000001L681.5000000000002,185.2000000000001L681.3000000000002,186.4000000000001L679.1000000000001,189.9000000000001L678.5000000000001,191.10000000000008L678.4000000000001,192.50000000000009L678.6000000000001,193.8000000000001L680.0000000000001,197.6000000000001L682.2000000000002,197.5000000000001L686.6000000000001,196.7000000000001L688.8000000000002,196.9000000000001L689.8000000000002,197.3000000000001L692.6000000000001,199.3000000000001L693.6000000000001,199.7000000000001L697.0000000000001,200.6000000000001L698.9000000000001,201.7000000000001L700.5000000000001,203.2000000000001L701.5000000000001,205.0000000000001L701.9000000000001,207.1000000000001L701.0000000000001,212.90000000000012L701.1000000000001,214.20000000000013L701.3000000000002,215.50000000000014L701.8000000000002,217.00000000000014L702.7000000000002,217.60000000000014L707.2000000000002,218.80000000000013L709.3000000000002,218.5000000000001L711.6000000000001,217.1000000000001L713.5000000000001,215.5000000000001L715.7000000000002,214.30000000000013L718.0000000000001,214.0000000000001L720.3000000000001,215.1000000000001L721.3000000000001,216.2000000000001L721.7,217.6000000000001L722.3000000000001,221.8000000000001L722.8000000000001,222.8000000000001L724.3000000000001,224.8000000000001L725.0000000000001,226.00000000000009L725.2000000000002,227.10000000000008L725.3000000000002,232.30000000000007L725.8000000000002,234.80000000000007L727.0000000000002,237.10000000000008L728.8000000000002,239.10000000000008L737.6000000000001,245.10000000000008L739.5000000000001,247.10000000000008L740.5000000000001,249.60000000000008L739.7000000000002,251.70000000000007L737.2000000000002,252.10000000000008L732.2000000000002,251.60000000000008L730.7000000000002,252.70000000000007L731.6000000000001,254.60000000000008L734.9000000000001,258.00000000000006L736.2,259.1000000000001L737.5,259.50000000000006L738.9,259.6000000000001L742.1,258.9000000000001L743.7,258.9000000000001L745.1,259.30000000000007L746.5,260.30000000000007L747.3,261.30000000000007L747.5999999999999,262.50000000000006L747.6999999999999,263.70000000000005L746.9,267.6L747,268.8L747.4,270.2L747.6,270.59999999999997L751.3000000000001,271.79999999999995L752.5000000000001,272.99999999999994L756.8000000000001,277.19999999999993L760.8000000000001,278.8999999999999L760.9000000000001,278.8999999999999Z" class="sm_state sm_state_SNMT" opacity="1" stroke-opacity="1" stroke-width="1.8750000000000002" stroke-linejoin="round" transform="matrix(0.4076,0,0,0.4076,0,0)" style="-webkit-tap-highlight-color: rgba(0, 0, 0, 0); opacity: 1; cursor: pointer; stroke-opacity: 1; stroke-linejoin: round; fill-opacity: 1;" fill-opacity="1"/> </svg>