<svg height="299.9936" version="1.1" width="407.6" xmlns="http://www.w3.org/2000/svg" style="overflow: hidden; position: relative; left: -0.600037px; top: -0.599998px;" viewBox="0 0 407.6 299.9936" preserveAspectRatio="xMinYMin"><rect x="-2000" y="-1472" width="5000" height="3680" r="0" rx="0" ry="0" fill="#ffffff" stroke="none" transform="matrix(0.4076,0,0,0.4076,0,0)" stroke-width="2.453385672227674" style="-webkit-tap-highlight-color: rgba(0, 0, 0, 0); fill-opacity: 0;" fill-opacity="0"/>
<path fill="#3498db" stroke="#ffffff" d="M608.8,119L602.6999999999999,131.9L587.6999999999999,138L585.4999999999999,143.6L568.8999999999999,158.6L545.3999999999999,178.1L523.3999999999999,195.4L517.4999999999999,190.9L506.2999999999999,185.4L493.8999999999999,178.70000000000002L487.49999999999994,169.8L479.99999999999994,158.60000000000002L463.3999999999999,146.90000000000003L455.69999999999993,147.50000000000003L443.79999999999995,141.10000000000002L441.29999999999995,140.20000000000002L356.79999999999995,140.00000000000003L355.79999999999995,150.30000000000004L332.59999999999997,151.90000000000003L330.99999999999994,150.90000000000003L300.59999999999997,115.90000000000003L297.49999999999994,113.10000000000004L295.69999999999993,111.90000000000003L294.69999999999993,113.00000000000003L294.19999999999993,113.60000000000002L291.69999999999993,115.40000000000002L288.8999999999999,116.80000000000003L288.2999999999999,117.30000000000003L287.7999999999999,117.80000000000003L287.1999999999999,119.40000000000002L285.6999999999999,122.00000000000001L284.6999999999999,123.20000000000002L283.6999999999999,123.90000000000002L255.89999999999986,139.8L255.79999999999987,139.8L255.09999999999988,140.20000000000002L249.8999999999999,144.50000000000003L248.8999999999999,145.60000000000002L248.4999999999999,146.3L248.19999999999987,147L247.79999999999987,148.5L247.39999999999986,149.3L246.59999999999985,149.9L240.29999999999984,153.20000000000002L238.79999999999984,154.50000000000003L237.79999999999984,156.30000000000004L235.99999999999983,161.40000000000003L235.29999999999984,162.50000000000003L234.19999999999985,163.70000000000002L232.09999999999985,164.00000000000003L229.79999999999984,164.10000000000002L227.29999999999984,164.50000000000003L225.19999999999985,165.30000000000004L221.99999999999986,167.70000000000005L219.29999999999987,168.60000000000005L216.49999999999986,169.10000000000005L192.49999999999986,169.60000000000005L192.39999999999986,169.60000000000005L192.09999999999985,169.20000000000005L195.49999999999986,163.40000000000003L196.89999999999986,154.90000000000003L197.29999999999987,138.20000000000005L198.19999999999987,136.50000000000006L200.19999999999987,129.70000000000005L202.79999999999987,123.50000000000004L203.39999999999986,113.10000000000004L204.49999999999986,110.00000000000004L206.59999999999985,108.10000000000004L212.09999999999985,106.80000000000004L214.39999999999986,105.30000000000004L215.29999999999987,103.70000000000005L215.99999999999986,101.90000000000005L221.99999999999986,75.90000000000005L222.79999999999987,69.70000000000005L223.89999999999986,66.80000000000004L225.89999999999986,64.00000000000004L228.59999999999985,61.30000000000004L231.79999999999984,59.40000000000004L235.19999999999985,58.70000000000004L239.99999999999986,59.60000000000004L241.69999999999985,59.70000000000004L243.39999999999984,59.40000000000004L244.89999999999984,58.70000000000004L249.19999999999985,55.60000000000004L250.89999999999984,54.80000000000004L252.69999999999985,54.50000000000004L254.49999999999986,54.90000000000004L255.89999999999986,55.70000000000004L256.9999999999999,56.80000000000004L258.7999999999999,59.50000000000004L261.2999999999999,62.200000000000045L264.2999999999999,63.600000000000044L267.5999999999999,64.00000000000004L271.0999999999999,63.50000000000004L272.19999999999993,62.80000000000004L273.19999999999993,62.20000000000004L274.29999999999995,62.000000000000036L275.59999999999997,62.30000000000003L277.49999999999994,63.10000000000003L278.3999999999999,63.20000000000003L279.49999999999994,63.00000000000003L285.29999999999995,60.300000000000026L287.4,60.10000000000002L292.59999999999997,61.300000000000026L293.79999999999995,61.300000000000026L297.49999999999994,60.700000000000024L299.79999999999995,60.800000000000026L306.49999999999994,63.00000000000003L311.29999999999995,63.300000000000026L312.49999999999994,63.700000000000024L315.99999999999994,65.30000000000003L318.29999999999995,65.90000000000002L320.59999999999997,65.80000000000003L322.79999999999995,65.10000000000002L324.79999999999995,63.700000000000024L328.09999999999997,60.700000000000024L329.79999999999995,59.60000000000002L332.09999999999997,59.300000000000026L338.4,60.60000000000002L340.59999999999997,60.40000000000002L342.4,59.50000000000002L343.79999999999995,58.200000000000024L347.4,53.00000000000002L349.2,51.40000000000002L351.3,50.40000000000002L353.6,50.60000000000002L355,51.700000000000024L355.8,53.300000000000026L356.8,54.700000000000024L358.6,55.50000000000002L360.8,55.50000000000002L362.90000000000003,55.00000000000002L369.1,52.30000000000002L371.40000000000003,51.80000000000002L376.1,51.70000000000002L383.1,52.80000000000002L385.5,52.70000000000002L401.4,50.20000000000002L404.5,49.000000000000014L405.4,48.40000000000001L406.09999999999997,47.500000000000014L406.09999999999997,46.40000000000001L405.59999999999997,45.40000000000001L403.2,43.000000000000014L402.4,41.000000000000014L402.7,39.000000000000014L403.9,37.500000000000014L406.09999999999997,36.90000000000001L408.2,37.500000000000014L409.5,39.000000000000014L410.7,40.80000000000001L412.2,42.30000000000001L413.3,42.60000000000001L414.40000000000003,42.50000000000001L415.40000000000003,42.10000000000001L416.3,41.400000000000006L417.1,40.400000000000006L417.40000000000003,39.400000000000006L417.90000000000003,37.300000000000004L418.8,35.800000000000004L420.3,34.800000000000004L423.6,33.400000000000006L425.3,34.300000000000004L427.2,36.400000000000006L427.4,36.7L428.5,38.900000000000006L430,40.800000000000004L432.7,41.300000000000004L437.2,40.2L462.5,42L464.2,41.8L469.09999999999997,40.5L470.59999999999997,40.5L471.9,40.8L476.09999999999997,42.8L477.7,43.099999999999994L479.3,42.99999999999999L485.5,41.29999999999999L487.1,41.19999999999999L493.1,42.499999999999986L494.70000000000005,42.499999999999986L496.20000000000005,42.29999999999998L497.80000000000007,41.899999999999984L499.20000000000005,41.19999999999998L503.1,38.899999999999984L504.5,38.29999999999998L507.4,38.19999999999998L516.8,41.899999999999984L517.9,42.69999999999998L518.5,43.79999999999998L518.5,45.499999999999986L517.7,48.399999999999984L517.9000000000001,49.59999999999999L519.3000000000001,50.19999999999999L525.0000000000001,49.69999999999999L526.4000000000001,50.39999999999999L526.9000000000001,51.599999999999994L527.1000000000001,54.39999999999999L527.9000000000001,55.599999999999994L529.4000000000001,56.3L533.0000000000001,56.5L534.6000000000001,56.8L535.8000000000002,57.5L538.3000000000002,60.9L539.4000000000002,61.8L542.9000000000002,64.3L547.9000000000002,70.2L556.7000000000002,78.2L561.6000000000001,81.10000000000001L562.6000000000001,82.00000000000001L565.1000000000001,85.10000000000001L566.5000000000001,86.00000000000001L569.4000000000001,87.10000000000001L570.7,87.9L571.6,88.9L571.7,90L570.8000000000001,92.3L570.5000000000001,93.6L570.8000000000001,94.69999999999999L572.3000000000001,96.6L572.9000000000001,97.89999999999999L573.0000000000001,99.19999999999999L572.2000000000002,101.99999999999999L572.8000000000002,104.49999999999999L575.3000000000002,105.79999999999998L581.1000000000001,107.49999999999999L582.3000000000002,108.29999999999998L584.6000000000001,109.99999999999999L585.6000000000001,111.09999999999998L586.3000000000002,112.29999999999998L587.6000000000001,116.49999999999999L588.3000000000002,117.99999999999999L589.2000000000002,119.29999999999998L590.4000000000002,120.39999999999998L591.7000000000002,121.29999999999998L592.9000000000002,121.59999999999998L594.1000000000003,121.49999999999999L595.3000000000003,121.09999999999998L597.7000000000003,119.69999999999997L600.1000000000003,117.79999999999997L601.1000000000003,116.69999999999997L603.7000000000003,112.89999999999998L604.8000000000003,111.79999999999998L606.1000000000003,111.09999999999998L607.4000000000002,110.69999999999997L608.8000000000002,110.59999999999998L610.2000000000002,110.79999999999998L609.9000000000002,112.79999999999998L609.0000000000002,115.29999999999998L608.4000000000002,117.39999999999998L608.8000000000002,118.99999999999997Z" class="sm_state sm_state_SNSL" opacity="1" stroke-opacity="1" stroke-width="1.8750000000000002" stroke-linejoin="round" transform="matrix(0.4076,0,0,0.4076,0,0)" style="-webkit-tap-highlight-color: rgba(0, 0, 0, 0); opacity: 1; cursor: pointer; stroke-opacity: 1; stroke-linejoin: round; fill-opacity: 1;" fill-opacity="1"/></svg>