<svg height="299.9936" version="1.1" width="407.6" xmlns="http://www.w3.org/2000/svg" style="overflow: hidden; position: relative; left: -0.600037px; top: -0.599998px;" viewBox="0 0 407.6 299.9936" preserveAspectRatio="xMinYMin"><rect x="-2000" y="-1472" width="5000" height="3680" r="0" rx="0" ry="0" fill="#ffffff" stroke="none" transform="matrix(0.4076,0,0,0.4076,0,0)" stroke-width="2.453385672227674" style="-webkit-tap-highlight-color: rgba(0, 0, 0, 0); fill-opacity: 0;" fill-opacity="0"/>
<path fill="#3498db" stroke="#ffffff" d="M369.3,542.3L368.90000000000003,549L367.6,554.8L365.90000000000003,560.5L366.70000000000005,565.9L371.90000000000003,569.4L378.90000000000003,570.8L381.00000000000006,574.3L384.1000000000001,582.3L384.50000000000006,587.1999999999999L384.90000000000003,590.8L389.70000000000005,593.9L394.90000000000003,597.5L394.50000000000006,601.5L394.90000000000003,606.8L397.90000000000003,610.4L400.50000000000006,614.8L400.50000000000006,620.0999999999999L400.50000000000006,627.1999999999999L398.30000000000007,632.0999999999999L397.00000000000006,636.5999999999999L398.20000000000005,645.8999999999999L391.00000000000006,645.7999999999998L386.80000000000007,646.4999999999999L383.00000000000006,648.1999999999999L374.40000000000003,654.4L365.40000000000003,658.6L357.6,664.3000000000001L357.1,664.7L319.90000000000003,682.2L314.8,683.2L289.3,681.7L288.7,680.8000000000001L284.09999999999997,674.0000000000001L282.59999999999997,670.8000000000001L279.99999999999994,666.9000000000001L277.79999999999995,662.4000000000001L277.4,658.4000000000001L277.5,657.5000000000001L279.9,659.4000000000001L281.09999999999997,660.8000000000001L282.79999999999995,661.1L292.29999999999995,661.2L293.19999999999993,661.9000000000001L295.0999999999999,663.9000000000001L295.7999999999999,664.3000000000001L297.0999999999999,664.2L300.8999999999999,663.2L302.5999999999999,662.2L304.19999999999993,660.2L306.29999999999995,659L309.4,660.3L310.2,659.5999999999999L311.2,659.1999999999999L312.09999999999997,659.0999999999999L314.09999999999997,660.5999999999999L314.99999999999994,660.4999999999999L315.79999999999995,660.0999999999999L316.59999999999997,660.3L317.7,661.6999999999999L318.7,664.1999999999999L319.5,665.4L320.5,666.3L321.5,666.9L322.9,667.3L324.59999999999997,667.3L326.29999999999995,667L333.09999999999997,664.2L335.79999999999995,661.4000000000001L340.29999999999995,655.5000000000001L341.99999999999994,654.3000000000001L343.49999999999994,653.5000000000001L344.59999999999997,652.4000000000001L344.99999999999994,650.4000000000001L344.09999999999997,649.4000000000001L342.49999999999994,648.7L341.59999999999997,647.9000000000001L342.9,646.7L341.4,643.3000000000001L340.09999999999997,638.7L339.59999999999997,633.9000000000001L340.9,630.2L342.59999999999997,629.1L344.7,629.1L346.9,629.2L348.9,629L351,628.1L352.4,627L353.29999999999995,625.7L353.99999999999994,623.9000000000001L356.99999999999994,626.8000000000001L359.79999999999995,627.6L361.69999999999993,626L361.99999999999994,621.8L359.69999999999993,624.1999999999999L357.5999999999999,624.0999999999999L355.2999999999999,623.1999999999999L352.9999999999999,622.8L350.6999999999999,623.8L347.09999999999985,626.5L344.39999999999986,627.1L342.89999999999986,627.1L340.6999999999999,627.4L338.6999999999999,628.4L337.7999999999999,630.6999999999999L337.7999999999999,639.4999999999999L339.4999999999999,645.0999999999999L339.7999999999999,646.6999999999999L339.8999999999999,649.1999999999999L339.69999999999993,650.4L339.29999999999995,651.4L335.69999999999993,654.5L334.5999999999999,656L327.19999999999993,662.8L325.19999999999993,664L323.3999999999999,664.1L321.8999999999999,663.4L320.5999999999999,662.3L321.4999999999999,657.8L316.9999999999999,655.6999999999999L306.4999999999999,653.9999999999999L299.39999999999986,658.5999999999999L296.79999999999984,659.1999999999999L296.29999999999984,658.6999999999999L295.59999999999985,657.5999999999999L294.59999999999985,656.5999999999999L292.79999999999984,656.0999999999999L290.99999999999983,656.3999999999999L288.49999999999983,657.7999999999998L286.6999999999998,658.1999999999998L284.99999999999983,657.6999999999998L282.79999999999984,656.4999999999998L279.09999999999985,653.9999999999998L278.89999999999986,653.2999999999997L279.09999999999985,652.1999999999997L279.1999999999999,651.1999999999997L278.59999999999985,650.7999999999997L276.6999999999999,650.5999999999997L275.6999999999999,650.2999999999997L274.9999999999999,649.8999999999997L274.0999999999999,648.5999999999998L271.9999999999999,644.5999999999998L271.4999999999999,644.0999999999998L270.7999999999999,643.7999999999998L270.2999999999999,643.2999999999998L269.6999999999999,640.0999999999998L268.89999999999986,638.2999999999998L268.6999999999999,636.9999999999999L268.9999999999999,634.8999999999999L269.5999999999999,633.5999999999999L270.8999999999999,624.1999999999999L271.19999999999993,623.3L271.99999999999994,622.3L273.49999999999994,620.8L273.8999999999999,620L274.19999999999993,619L274.3999999999999,615.8L274.8999999999999,614.3L274.19999999999993,611.6999999999999L273.99999999999994,610.0999999999999L274.19999999999993,608.3999999999999L280.79999999999995,597.6999999999998L286.69999999999993,585.2999999999998L286.79999999999995,584.1999999999998L285.9,583.0999999999998L284.9,582.6999999999998L283.79999999999995,582.2999999999998L282.9,581.7999999999998L282.7,580.4999999999999L283.4,578.6999999999999L286,575.8L287.3,573.4L291.3,573.5L296.8,573.5L297.8,572.8L298.1,562L298.1,559.6L298.40000000000003,548.9L299.00000000000006,546.6999999999999L300.70000000000005,545.8L311.00000000000006,544.8L317.6000000000001,542.6999999999999L319.50000000000006,542.5999999999999L329.40000000000003,543.5999999999999L331.8,543.3999999999999L336.3,541.8999999999999L339.7,539.9999999999999L343.09999999999997,538.6999999999999L347.7,538.9L363.8,542.3L369.3,542.3Z" class="sm_state sm_state_SNSE" opacity="1" stroke-opacity="1" stroke-width="1.8750000000000002" stroke-linejoin="round" transform="matrix(0.4076,0,0,0.4076,0,0)" style="-webkit-tap-highlight-color: rgba(0, 0, 0, 0); opacity: 1; cursor: pointer; stroke-opacity: 1; stroke-linejoin: round; fill-opacity: 1;" fill-opacity="1"/> </svg>