<svg width="1728" height="1117" viewBox="0 0 1728 1117" fill="none" xmlns="http://www.w3.org/2000/svg">
<g clip-path="url(#clip0_72_361)">
<rect width="1728" height="1117" fill="#2C3E50"/>
<circle cx="-128" cy="559" r="457" fill="#F1C40F"/>
<circle cx="38" cy="38" r="38" transform="matrix(1 0 0 -1 118 243)" fill="#27AE60"/>
<path fill-rule="evenodd" clip-rule="evenodd" d="M1279.75 -240.125C1283.45 -275.276 1290.63 -310.131 1301.28 -344.134L1651.87 -694.723C1685.87 -705.37 1720.72 -712.547 1755.88 -716.254L1279.75 -240.125ZM1444.75 205.888C1459.09 219.441 1474 232.05 1489.39 243.717L2239.72 -506.606C2228.05 -522.002 2215.44 -536.911 2201.89 -551.255L1444.75 205.888ZM1598.78 307.7C1580.11 299.59 1561.81 290.366 1543.98 280.027L2276.03 -452.021C2286.37 -434.188 2295.59 -415.886 2303.7 -397.216L1598.78 307.7ZM1665.76 331.618C1688.11 337.958 1710.8 342.816 1733.66 346.194L2342.19 -262.338C2338.82 -285.2 2333.96 -307.886 2327.62 -330.24L1665.76 331.618ZM1910.21 343.015C1880.01 348.597 1849.43 351.572 1818.81 351.937L2347.94 -177.186C2347.57 -146.573 2344.6 -115.986 2339.01 -85.7854L1910.21 343.015ZM2045.27 298.852C2097.98 273.408 2147.38 238.825 2191.1 195.102C2234.83 151.379 2269.41 101.978 2294.85 49.2719L2045.27 298.852ZM2155.05 -595.306L1400.69 159.045C1387.98 143.803 1376.24 128.021 1365.48 111.781L2107.78 -630.52C2124.02 -619.761 2139.8 -608.023 2155.05 -595.306ZM1332.26 54.104L2050.1 -663.738C2031.19 -673.104 2011.84 -681.285 1992.17 -688.279L1307.72 -3.83258C1314.72 15.8438 1322.9 35.193 1332.26 54.104ZM1287.87 -74.8765C1282.92 -98.863 1279.63 -123.123 1277.99 -147.474L1848.53 -718.011C1872.88 -716.373 1897.14 -713.08 1921.12 -708.13L1287.87 -74.8765Z" fill="#F1C40F"/>
<path d="M1368.37 802.539L1648.91 881.295L1440.43 1084.88L1368.37 802.539Z" fill="#3498DB" fill-opacity="0.5"/>
<path d="M1473.5 896.606L1754.05 975.363L1545.57 1178.95L1473.5 896.606Z" fill="#3498DB" fill-opacity="0.5"/>
<path d="M1582.6 989.432L1863.15 1068.19L1654.67 1271.77L1582.6 989.432Z" fill="#3498DB" fill-opacity="0.5"/>
</g>
<defs>
<clipPath id="clip0_72_361">
<rect width="1728" height="1117" fill="white"/>
</clipPath>
</defs>
</svg>
