<svg width="32" height="32" viewBox="0 0 32 32" fill="none" xmlns="http://www.w3.org/2000/svg">
<g id="cancel_24dp_E8EAED_FILL0_wght400_GRAD0_opsz24 2">
<path id="Vector" d="M11.2003 22.6667L16.0003 17.8667L20.8003 22.6667L22.667 20.8L17.867 16L22.667 11.2L20.8003 9.33332L16.0003 14.1333L11.2003 9.33332L9.33366 11.2L14.1337 16L9.33366 20.8L11.2003 22.6667ZM16.0003 29.3333C14.1559 29.3333 12.4225 28.9833 10.8003 28.2833C9.1781 27.5833 7.76699 26.6333 6.56699 25.4333C5.36699 24.2333 4.41699 22.8222 3.71699 21.2C3.01699 19.5778 2.66699 17.8444 2.66699 16C2.66699 14.1555 3.01699 12.4222 3.71699 10.8C4.41699 9.17777 5.36699 7.76666 6.56699 6.56666C7.76699 5.36666 9.1781 4.41666 10.8003 3.71666C12.4225 3.01666 14.1559 2.66666 16.0003 2.66666C17.8448 2.66666 19.5781 3.01666 21.2003 3.71666C22.8225 4.41666 24.2337 5.36666 25.4337 6.56666C26.6337 7.76666 27.5837 9.17777 28.2837 10.8C28.9837 12.4222 29.3337 14.1555 29.3337 16C29.3337 17.8444 28.9837 19.5778 28.2837 21.2C27.5837 22.8222 26.6337 24.2333 25.4337 25.4333C24.2337 26.6333 22.8225 27.5833 21.2003 28.2833C19.5781 28.9833 17.8448 29.3333 16.0003 29.3333ZM16.0003 26.6667C18.9781 26.6667 21.5003 25.6333 23.567 23.5667C25.6337 21.5 26.667 18.9778 26.667 16C26.667 13.0222 25.6337 10.5 23.567 8.43332C21.5003 6.36666 18.9781 5.33332 16.0003 5.33332C13.0225 5.33332 10.5003 6.36666 8.43366 8.43332C6.36699 10.5 5.33366 13.0222 5.33366 16C5.33366 18.9778 6.36699 21.5 8.43366 23.5667C10.5003 25.6333 13.0225 26.6667 16.0003 26.6667Z" fill="#D61212"/>
</g>
</svg>
