<svg width="25" height="25" viewBox="0 0 25 25" fill="none" xmlns="http://www.w3.org/2000/svg">
<path d="M22.3958 4.16675H20.1388V5.55564H22.2222V20.8334H2.77774V5.55564H4.86107V4.16675H2.60413C2.44179 4.16946 2.28158 4.20413 2.13265 4.26877C1.98371 4.33341 1.84897 4.42675 1.73612 4.54348C1.62326 4.6602 1.53451 4.79801 1.47492 4.94904C1.41534 5.10007 1.38609 5.26136 1.38885 5.42369V20.9654C1.38609 21.1277 1.41534 21.289 1.47492 21.44C1.53451 21.591 1.62326 21.7289 1.73612 21.8456C1.84897 21.9623 1.98371 22.0556 2.13265 22.1203C2.28158 22.1849 2.44179 22.2196 2.60413 22.2223H22.3958C22.5581 22.2196 22.7183 22.1849 22.8673 22.1203C23.0162 22.0556 23.151 21.9623 23.2638 21.8456C23.3767 21.7289 23.4654 21.591 23.525 21.44C23.5846 21.289 23.6138 21.1277 23.6111 20.9654V5.42369C23.6138 5.26136 23.5846 5.10007 23.525 4.94904C23.4654 4.79801 23.3767 4.6602 23.2638 4.54348C23.151 4.42675 23.0162 4.33341 22.8673 4.26877C22.7183 4.20413 22.5581 4.16946 22.3958 4.16675Z" fill="#3498DB"/>
<path d="M5.55566 9.72217H6.94455V11.1111H5.55566V9.72217Z" fill="#3498DB"/>
<path d="M9.72217 9.72217H11.1111V11.1111H9.72217V9.72217Z" fill="#3498DB"/>
<path d="M13.8887 9.72217H15.2776V11.1111H13.8887V9.72217Z" fill="#3498DB"/>
<path d="M18.0557 9.72217H19.4446V11.1111H18.0557V9.72217Z" fill="#3498DB"/>
<path d="M5.55566 13.1943H6.94455V14.5832H5.55566V13.1943Z" fill="#3498DB"/>
<path d="M9.72217 13.1943H11.1111V14.5832H9.72217V13.1943Z" fill="#3498DB"/>
<path d="M13.8887 13.1943H15.2776V14.5832H13.8887V13.1943Z" fill="#3498DB"/>
<path d="M18.0557 13.1943H19.4446V14.5832H18.0557V13.1943Z" fill="#3498DB"/>
<path d="M5.55566 16.6667H6.94455V18.0556H5.55566V16.6667Z" fill="#3498DB"/>
<path d="M9.72217 16.6667H11.1111V18.0556H9.72217V16.6667Z" fill="#3498DB"/>
<path d="M13.8887 16.6667H15.2776V18.0556H13.8887V16.6667Z" fill="#3498DB"/>
<path d="M18.0557 16.6667H19.4446V18.0556H18.0557V16.6667Z" fill="#3498DB"/>
<path d="M6.94444 6.94447C7.12862 6.94447 7.30526 6.87131 7.43549 6.74107C7.56572 6.61084 7.63889 6.43421 7.63889 6.25003V2.08336C7.63889 1.89918 7.56572 1.72255 7.43549 1.59231C7.30526 1.46208 7.12862 1.38892 6.94444 1.38892C6.76027 1.38892 6.58363 1.46208 6.4534 1.59231C6.32316 1.72255 6.25 1.89918 6.25 2.08336V6.25003C6.25 6.43421 6.32316 6.61084 6.4534 6.74107C6.58363 6.87131 6.76027 6.94447 6.94444 6.94447Z" fill="#3498DB"/>
<path d="M18.0558 6.94447C18.24 6.94447 18.4166 6.87131 18.5468 6.74107C18.6771 6.61084 18.7502 6.43421 18.7502 6.25003V2.08336C18.7502 1.89918 18.6771 1.72255 18.5468 1.59231C18.4166 1.46208 18.24 1.38892 18.0558 1.38892C17.8716 1.38892 17.695 1.46208 17.5647 1.59231C17.4345 1.72255 17.3613 1.89918 17.3613 2.08336V6.25003C17.3613 6.43421 17.4345 6.61084 17.5647 6.74107C17.695 6.87131 17.8716 6.94447 18.0558 6.94447Z" fill="#3498DB"/>
<path d="M9.02783 4.16675H15.9723V5.55564H9.02783V4.16675Z" fill="#3498DB"/>
</svg>
