<svg width="18" height="18" viewBox="0 0 18 18" fill="none" xmlns="http://www.w3.org/2000/svg">
<path d="M6.98203 17.9622C6.06797 17.7533 5.47383 16.7369 5.65664 15.6923L5.7375 15.2344C5.92383 14.1617 6.26836 13.1412 6.75 12.2132H1.6875C0.755859 12.2132 0 11.3494 0 10.2848C0 9.54156 0.369141 8.89474 0.910547 8.57334C0.527344 8.2198 0.28125 7.67744 0.28125 7.0708C0.28125 6.1307 0.871874 5.34729 1.64883 5.17856C1.49414 4.88528 1.40625 4.54379 1.40625 4.1782C1.40625 3.32247 1.89492 2.5953 2.56992 2.34622C2.54531 2.21364 2.53125 2.07303 2.53125 1.9284C2.53125 0.863762 3.28711 0 4.21875 0H7.64648C8.31445 0 8.96484 0.224979 9.52031 0.646818L10.8738 1.67931C11.8125 2.39443 12.375 3.59968 12.375 4.8893V6.428L12.375 8.3564V9.35675C12.375 10.5299 11.9074 11.6347 11.1094 12.3699L10.8492 12.6069C9.91758 13.4586 9.28125 14.6558 9.04922 15.9896L8.96836 16.4476C8.78555 17.4922 7.89609 18.1711 6.98203 17.9622ZM16.875 11.5704H14.625C14.0027 11.5704 13.5 10.9959 13.5 10.2848L13.5 1.2856C13.5 0.574503 14.0027 0 14.625 0H16.875C17.4973 0 18 0.574503 18 1.2856L18 10.2848C18 10.9959 17.4973 11.5704 16.875 11.5704Z" fill="white"/>
</svg>
