<svg width="30" height="31" viewBox="0 0 30 31" fill="none" xmlns="http://www.w3.org/2000/svg">
<g id="material-symbols:mail-outline">
<path id="Vector" d="M5 25.7783C4.3125 25.7783 3.72417 25.5337 3.235 25.0446C2.74583 24.5554 2.50083 23.9667 2.5 23.2783V8.27832C2.5 7.59082 2.745 7.00249 3.235 6.51332C3.725 6.02415 4.31333 5.77915 5 5.77832H25C25.6875 5.77832 26.2762 6.02332 26.7662 6.51332C27.2562 7.00332 27.5008 7.59165 27.5 8.27832V23.2783C27.5 23.9658 27.2554 24.5546 26.7662 25.0446C26.2771 25.5346 25.6883 25.7792 25 25.7783H5ZM15 17.0283L5 10.7783V23.2783H25V10.7783L15 17.0283ZM15 14.5283L25 8.27832H5L15 14.5283ZM5 10.7783V8.27832V23.2783V10.7783Z" fill="#F8F9FA"/>
</g>
</svg>
