<svg width="32" height="32" viewBox="0 0 32 32" fill="none" xmlns="http://www.w3.org/2000/svg">
<path d="M10.6663 26.6667H21.333V22.6667C21.333 21.2 20.8108 19.9445 19.7663 18.9C18.7219 17.8556 17.4663 17.3334 15.9997 17.3334C14.533 17.3334 13.2775 17.8556 12.233 18.9C11.1886 19.9445 10.6663 21.2 10.6663 22.6667V26.6667ZM15.9997 14.6667C17.4663 14.6667 18.7219 14.1445 19.7663 13.1C20.8108 12.0556 21.333 10.8 21.333 9.33335V5.33335H10.6663V9.33335C10.6663 10.8 11.1886 12.0556 12.233 13.1C13.2775 14.1445 14.533 14.6667 15.9997 14.6667ZM5.33301 29.3334V26.6667H7.99967V22.6667C7.99967 21.3111 8.31634 20.0389 8.94967 18.85C9.58301 17.6611 10.4663 16.7111 11.5997 16C10.4663 15.2889 9.58301 14.3389 8.94967 13.15C8.31634 11.9611 7.99967 10.6889 7.99967 9.33335V5.33335H5.33301V2.66669H26.6663V5.33335H23.9997V9.33335C23.9997 10.6889 23.683 11.9611 23.0497 13.15C22.4163 14.3389 21.533 15.2889 20.3997 16C21.533 16.7111 22.4163 17.6611 23.0497 18.85C23.683 20.0389 23.9997 21.3111 23.9997 22.6667V26.6667H26.6663V29.3334H5.33301Z" fill="#2C3E50"/>
</svg>
