<svg width="25" height="26" viewBox="0 0 25 26" fill="none" xmlns="http://www.w3.org/2000/svg">
<path d="M4.16667 22.0967V15.8467H20.8333V22.0967H18.75V17.93H6.25V22.0967H4.16667ZM4.6875 14.805C4.25347 14.805 3.88455 14.6531 3.58073 14.3493C3.27691 14.0455 3.125 13.6765 3.125 13.2425C3.125 12.8085 3.27691 12.4396 3.58073 12.1357C3.88455 11.8319 4.25347 11.68 4.6875 11.68C5.12153 11.68 5.49045 11.8319 5.79427 12.1357C6.09809 12.4396 6.25 12.8085 6.25 13.2425C6.25 13.6765 6.09809 14.0455 5.79427 14.3493C5.49045 14.6531 5.12153 14.805 4.6875 14.805ZM7.29167 14.805V5.43001C7.29167 4.8571 7.49566 4.36664 7.90365 3.95866C8.31163 3.55067 8.80208 3.34668 9.375 3.34668H15.625C16.1979 3.34668 16.6884 3.55067 17.0964 3.95866C17.5043 4.36664 17.7083 4.8571 17.7083 5.43001V14.805H7.29167ZM20.3125 14.805C19.8785 14.805 19.5095 14.6531 19.2057 14.3493C18.9019 14.0455 18.75 13.6765 18.75 13.2425C18.75 12.8085 18.9019 12.4396 19.2057 12.1357C19.5095 11.8319 19.8785 11.68 20.3125 11.68C20.7465 11.68 21.1155 11.8319 21.4193 12.1357C21.7231 12.4396 21.875 12.8085 21.875 13.2425C21.875 13.6765 21.7231 14.0455 21.4193 14.3493C21.1155 14.6531 20.7465 14.805 20.3125 14.805ZM9.375 12.7217H15.625V5.43001H9.375V12.7217Z" fill="#3498DB"/>
</svg>
