<svg width="57" height="57" viewBox="0 0 57 57" fill="none" xmlns="http://www.w3.org/2000/svg">
<g id="facebook">
<path id="Vector" d="M28.4653 4.83887C15.4188 4.83887 4.74438 15.4896 4.74438 28.6072C4.74438 40.4677 13.4262 50.3119 24.7648 52.091V35.4863H18.7397V28.6072H24.7648V23.3649C24.7648 17.411 28.2993 14.1375 33.7314 14.1375C36.3169 14.1375 39.0211 14.5882 39.0211 14.5882V20.4472H36.0323C33.0909 20.4472 32.1658 22.2738 32.1658 24.1477V28.6072H38.7602L37.6928 35.4863H32.1658V52.091C37.7555 51.2082 42.8454 48.3561 46.5168 44.0497C50.1881 39.7433 52.1989 34.2662 52.1862 28.6072C52.1862 15.4896 41.5118 4.83887 28.4653 4.83887Z" fill="#2C3E50"/>
</g>
</svg>
