<svg width="45" height="45" viewBox="0 0 49 51" fill="white" xmlns="http://www.w3.org/2000/svg">
<g id="Instagram" clip-path="url(#clip0_172_958)">
<path id="Vector" d="M24.6049 5.24067C30.9424 5.24067 31.6863 5.27005 34.1912 5.38757C36.5077 5.4953 37.7601 5.89683 38.5982 6.23961C39.7094 6.69011 40.5004 7.21895 41.3291 8.08078C42.1578 8.94261 42.6757 9.76526 43.0995 10.9209C43.4197 11.7925 43.8152 13.095 43.9187 15.5042C44.0317 18.1093 44.06 18.883 44.06 25.474C44.06 32.065 44.0317 32.8387 43.9187 35.4438C43.8152 37.8529 43.4291 39.1555 43.0995 40.0271C42.6663 41.1827 42.1578 42.0054 41.3291 42.8672C40.5004 43.729 39.7094 44.2677 38.5982 44.7084C37.7601 45.0414 36.5077 45.4527 34.1912 45.5604C31.6863 45.6779 30.9424 45.7073 24.6049 45.7073C18.2673 45.7073 17.5234 45.6779 15.0185 45.5604C12.702 45.4527 11.4496 45.0512 10.6115 44.7084C9.50029 44.2579 8.70928 43.729 7.8806 42.8672C7.05192 42.0054 6.534 41.1827 6.11024 40.0271C5.79007 39.1555 5.39456 37.8529 5.29098 35.4438C5.17798 32.8387 5.14973 32.065 5.14973 25.474C5.14973 18.883 5.17798 18.1093 5.29098 15.5042C5.39456 13.095 5.78065 11.7925 6.11024 10.9209C6.54342 9.76526 7.05192 8.94261 7.8806 8.08078C8.70928 7.21895 9.50029 6.68031 10.6115 6.23961C11.4496 5.90663 12.702 5.4953 15.0185 5.38757C17.5234 5.26026 18.2768 5.24067 24.6049 5.24067ZM24.6049 0.794434C18.1638 0.794434 17.3539 0.823814 14.8208 0.941336C12.2971 1.05886 10.5738 1.47998 9.06712 2.08717C7.50393 2.71396 6.18558 3.56599 4.86722 4.93707C3.54887 6.30816 2.73902 7.68904 2.12693 9.30497C1.54309 10.8719 1.13817 12.6641 1.02516 15.2986C0.912162 17.9232 0.883911 18.7655 0.883911 25.4642C0.883911 32.1629 0.912162 33.0052 1.02516 35.6396C1.13817 38.2643 1.54309 40.0565 2.12693 41.6332C2.72961 43.2589 3.54887 44.63 4.86722 46.0011C6.18558 47.3722 7.51335 48.2145 9.06712 48.851C10.5738 49.4582 12.2971 49.8793 14.8302 49.9969C17.3633 50.1144 18.1638 50.1438 24.6143 50.1438C31.0648 50.1438 31.8652 50.1144 34.3983 49.9969C36.9221 49.8793 38.6453 49.4582 40.1614 48.851C41.7246 48.2242 43.043 47.3722 44.3613 46.0011C45.6797 44.63 46.4895 43.2492 47.1016 41.6332C47.6855 40.0663 48.0904 38.2741 48.2034 35.6396C48.3164 33.0052 48.3446 32.1727 48.3446 25.4642C48.3446 18.7557 48.3164 17.9232 48.2034 15.2888C48.0904 12.6641 47.6855 10.8719 47.1016 9.29517C46.4989 7.66945 45.6797 6.29837 44.3613 4.92728C43.043 3.55619 41.7152 2.71396 40.1614 2.07738C38.6547 1.47018 36.9315 1.04906 34.3983 0.931542C31.8558 0.823814 31.046 0.794434 24.6049 0.794434Z" fill="white"/>
<path id="Vector_2" d="M24.6048 12.8013C17.8812 12.8013 12.4195 18.4717 12.4195 25.474C12.4195 32.4764 17.8718 38.1468 24.6048 38.1468C31.3379 38.1468 36.7902 32.4764 36.7902 25.474C36.7902 18.4717 31.3379 12.8013 24.6048 12.8013ZM24.6048 33.6907C20.2354 33.6907 16.6947 30.0084 16.6947 25.4642C16.6947 20.9201 20.2354 17.2377 24.6048 17.2377C28.9742 17.2377 32.515 20.9201 32.515 25.4642C32.515 30.0084 28.9742 33.6907 24.6048 33.6907Z" fill="white"/>
<path id="Vector_3" d="M37.2704 15.2492C38.8411 15.2492 40.1143 13.9251 40.1143 12.2916C40.1143 10.6582 38.8411 9.33398 37.2704 9.33398C35.6998 9.33398 34.4266 10.6582 34.4266 12.2916C34.4266 13.9251 35.6998 15.2492 37.2704 15.2492Z" fill="white"/>
</g>
<defs>
<clipPath id="clip0_172_958">
<rect width="47.4419" height="49.3395" fill="white" transform="translate(0.883911 0.794434)"/>
</clipPath>
</defs>
</svg>
