<svg width="20" height="18" viewBox="0 0 20 18" fill="none" xmlns="http://www.w3.org/2000/svg">
<path d="M12.2422 0.0367186C13.2578 0.239844 13.918 1.22812 13.7148 2.24375L13.625 2.68906C13.418 3.73203 13.0352 4.72422 12.5 5.62656H18.125C19.1602 5.62656 20 6.46641 20 7.50156C20 8.22422 19.5898 8.85312 18.9883 9.16562C19.4141 9.50937 19.6875 10.0367 19.6875 10.6266C19.6875 11.5406 19.0312 12.3023 18.168 12.4664C18.3398 12.7516 18.4375 13.0836 18.4375 13.4391C18.4375 14.2711 17.8945 14.9781 17.1445 15.2203C17.1719 15.3492 17.1875 15.4859 17.1875 15.6266C17.1875 16.6617 16.3477 17.5016 15.3125 17.5016H11.5039C10.7617 17.5016 10.0391 17.2828 9.42188 16.8727L7.91797 15.8688C6.875 15.1734 6.25 14.0016 6.25 12.7477V11.2516V9.37656V8.40391C6.25 7.26328 6.76953 6.18906 7.65625 5.47422L7.94531 5.24375C8.98047 4.41562 9.6875 3.25156 9.94531 1.95469L10.0352 1.50937C10.2383 0.49375 11.2266 -0.166406 12.2422 0.0367186ZM1.25 6.25156H3.75C4.44141 6.25156 5 6.81016 5 7.50156V16.2516C5 16.943 4.44141 17.5016 3.75 17.5016H1.25C0.558594 17.5016 0 16.943 0 16.2516V7.50156C0 6.81016 0.558594 6.25156 1.25 6.25156Z" fill="white"/>
</svg>
