<svg width="58" height="57" viewBox="0 0 58 57" fill="none" xmlns="http://www.w3.org/2000/svg">
<g id="linkedin">
<path id="Vector" d="M45.4518 7.11621C46.71 7.11621 47.9167 7.61604 48.8064 8.50575C49.6962 9.39546 50.196 10.6022 50.196 11.8604V45.0697C50.196 46.3279 49.6962 47.5346 48.8064 48.4243C47.9167 49.314 46.71 49.8139 45.4518 49.8139H12.2425C10.9843 49.8139 9.77757 49.314 8.88786 48.4243C7.99815 47.5346 7.49832 46.3279 7.49832 45.0697V11.8604C7.49832 10.6022 7.99815 9.39546 8.88786 8.50575C9.77757 7.61604 10.9843 7.11621 12.2425 7.11621H45.4518ZM44.2658 43.8836V31.3116C44.2658 29.2606 43.451 27.2937 42.0008 25.8435C40.5506 24.3933 38.5837 23.5785 36.5327 23.5785C34.5165 23.5785 32.1681 24.812 31.0295 26.6623V24.0292H24.4113V43.8836H31.0295V32.1892C31.0295 30.3627 32.5002 28.8683 34.3267 28.8683C35.2075 28.8683 36.0521 29.2182 36.6749 29.841C37.2977 30.4638 37.6476 31.3085 37.6476 32.1892V43.8836H44.2658ZM16.702 20.305C17.759 20.305 18.7726 19.8852 19.5199 19.1378C20.2673 18.3905 20.6872 17.3768 20.6872 16.3199C20.6872 14.1139 18.9081 12.3111 16.702 12.3111C15.6388 12.3111 14.6192 12.7335 13.8674 13.4853C13.1156 14.2371 12.6932 15.2567 12.6932 16.3199C12.6932 18.526 14.496 20.305 16.702 20.305ZM19.9993 43.8836V24.0292H13.4286V43.8836H19.9993Z" fill="#2C3E50"/>
</g>
</svg>
