<svg width="30" height="31" viewBox="0 0 30 31" fill="none" xmlns="http://www.w3.org/2000/svg">
<g id="carbon:location">
<path id="Vector" d="M15 17.6533C14.0729 17.6533 13.1666 17.3784 12.3958 16.8633C11.6249 16.3483 11.0241 15.6162 10.6693 14.7597C10.3145 13.9031 10.2217 12.9606 10.4026 12.0513C10.5834 11.1421 11.0299 10.3068 11.6854 9.65126C12.341 8.9957 13.1762 8.54926 14.0855 8.36839C14.9948 8.18752 15.9373 8.28035 16.7938 8.63514C17.6504 8.98992 18.3824 9.59073 18.8975 10.3616C19.4126 11.1324 19.6875 12.0387 19.6875 12.9658C19.686 14.2086 19.1917 15.4 18.3129 16.2787C17.4342 17.1575 16.2427 17.6518 15 17.6533ZM15 10.1533C14.4437 10.1533 13.9 10.3183 13.4375 10.6273C12.9749 10.9364 12.6145 11.3756 12.4016 11.8895C12.1887 12.4034 12.133 12.9689 12.2415 13.5145C12.3501 14.0601 12.6179 14.5612 13.0113 14.9546C13.4046 15.3479 13.9057 15.6158 14.4513 15.7243C14.9969 15.8328 15.5624 15.7771 16.0763 15.5642C16.5902 15.3514 17.0295 14.9909 17.3385 14.5284C17.6476 14.0659 17.8125 13.5221 17.8125 12.9658C17.8118 12.2201 17.5152 11.5052 16.9879 10.9779C16.4606 10.4506 15.7457 10.1541 15 10.1533Z" fill="#F8F9FA"/>
<path id="Vector_2" d="M15 28.9033L7.09126 19.5761C6.98136 19.4361 6.87261 19.2951 6.76501 19.1533C5.41473 17.3734 4.68499 15.2 4.68751 12.9658C4.68751 10.2308 5.774 7.60775 7.70797 5.67378C9.64194 3.73981 12.265 2.65332 15 2.65332C17.7351 2.65332 20.3581 3.73981 22.292 5.67378C24.226 7.60775 25.3125 10.2308 25.3125 12.9658C25.3147 15.1989 24.5853 17.3712 23.2359 19.1505L23.235 19.1533C23.235 19.1533 22.9538 19.5227 22.9116 19.5724L15 28.9033ZM8.26219 18.0236C8.26219 18.0236 8.48063 18.3124 8.53032 18.3743L15 26.0046L21.4781 18.3639C21.5194 18.3124 21.7388 18.0218 21.7397 18.0208C22.8433 16.5669 23.4397 14.7912 23.4375 12.9658C23.4375 10.7281 22.5486 8.58194 20.9662 6.99961C19.3839 5.41727 17.2378 4.52832 15 4.52832C12.7622 4.52832 10.6161 5.41727 9.03379 6.99961C7.45145 8.58194 6.56251 10.7281 6.56251 12.9658C6.56019 14.7924 7.1573 16.5692 8.26219 18.0236Z" fill="#F8F9FA"/>
</g>
</svg>
