<svg width="25" height="26" viewBox="0 0 25 26" fill="none" xmlns="http://www.w3.org/2000/svg">
<path d="M14.5832 13.7634C13.7151 13.7634 12.9773 13.4596 12.3696 12.852C11.762 12.2443 11.4582 11.5065 11.4582 10.6384C11.4582 9.77037 11.762 9.03253 12.3696 8.42489C12.9773 7.81725 13.7151 7.51343 14.5832 7.51343C15.4512 7.51343 16.1891 7.81725 16.7967 8.42489C17.4044 9.03253 17.7082 9.77037 17.7082 10.6384C17.7082 11.5065 17.4044 12.2443 16.7967 12.852C16.1891 13.4596 15.4512 13.7634 14.5832 13.7634ZM7.2915 16.8884C6.71859 16.8884 6.22814 16.6844 5.82015 16.2764C5.41216 15.8685 5.20817 15.378 5.20817 14.8051V6.47176C5.20817 5.89884 5.41216 5.40839 5.82015 5.00041C6.22814 4.59242 6.71859 4.38843 7.2915 4.38843H21.8748C22.4478 4.38843 22.9382 4.59242 23.3462 5.00041C23.7542 5.40839 23.9582 5.89884 23.9582 6.47176V14.8051C23.9582 15.378 23.7542 15.8685 23.3462 16.2764C22.9382 16.6844 22.4478 16.8884 21.8748 16.8884H7.2915ZM9.37484 14.8051H19.7915C19.7915 14.2322 19.9955 13.7417 20.4035 13.3337C20.8115 12.9258 21.3019 12.7218 21.8748 12.7218V8.55509C21.3019 8.55509 20.8115 8.3511 20.4035 7.94312C19.9955 7.53513 19.7915 7.04468 19.7915 6.47176H9.37484C9.37484 7.04468 9.17084 7.53513 8.76286 7.94312C8.35487 8.3511 7.86442 8.55509 7.2915 8.55509V12.7218C7.86442 12.7218 8.35487 12.9258 8.76286 13.3337C9.17084 13.7417 9.37484 14.2322 9.37484 14.8051ZM20.8332 21.0551H3.12484C2.55192 21.0551 2.06147 20.8511 1.65348 20.4431C1.2455 20.0351 1.0415 19.5447 1.0415 18.9718V7.51343H3.12484V18.9718H20.8332V21.0551Z" fill="#3498DB"/>
</svg>
