<svg width="25" height="25" viewBox="0 0 25 25" fill="none" xmlns="http://www.w3.org/2000/svg">
<path fill-rule="evenodd" clip-rule="evenodd" d="M5.97174 2.12811C7.23945 0.867692 9.32695 1.09165 10.3884 2.5104L11.703 4.26457C12.5676 5.41873 12.4905 7.03123 11.4644 8.05102L11.2165 8.29894C11.1885 8.40303 11.1857 8.51228 11.2082 8.61769C11.2738 9.04269 11.629 9.94269 13.1165 11.4219C14.604 12.901 15.5103 13.2552 15.9415 13.3219C16.0501 13.3449 16.1626 13.3417 16.2697 13.3125L16.6947 12.8896C17.6072 11.9833 19.0072 11.8135 20.1363 12.4271L22.1259 13.5104C23.8311 14.4354 24.2613 16.7521 22.8655 18.1406L21.3853 19.6114C20.9186 20.075 20.2915 20.4614 19.5269 20.5333C17.6415 20.7094 13.2488 20.4844 8.63112 15.8937C4.32174 11.6083 3.49466 7.87082 3.38945 6.02915C3.33737 5.0979 3.77695 4.3104 4.33737 3.75415L5.97174 2.12811ZM9.13841 3.44686C8.61028 2.74165 7.62695 2.6854 7.07278 3.23644L5.43737 4.86144C5.09362 5.20311 4.92903 5.58019 4.94987 5.94061C5.0332 7.40415 5.69987 10.776 9.7332 14.7864C13.9644 18.9927 17.8717 19.1187 19.3822 18.9771C19.6905 18.9489 19.9967 18.7885 20.2832 18.5042L21.7624 17.0323C22.3644 16.4344 22.2322 15.3448 21.3801 14.8823L19.3905 13.8C18.8405 13.5021 18.1967 13.6 17.7967 13.9979L17.3228 14.4698L16.7707 13.9156C17.3228 14.4698 17.3217 14.4708 17.3207 14.4708L17.3197 14.4729L17.3165 14.476L17.3092 14.4823L17.2936 14.4969C17.2493 14.5373 17.202 14.5742 17.1519 14.6073C17.0686 14.6625 16.9582 14.7239 16.8197 14.775C16.5384 14.8802 16.1655 14.9364 15.7051 14.8656C14.8019 14.7271 13.6051 14.1114 12.0144 12.5302C10.4249 10.9489 9.80403 9.75936 9.66445 8.85728C9.59257 8.39686 9.64987 8.02394 9.75612 7.74269C9.81503 7.58464 9.89872 7.43696 10.004 7.30519L10.0374 7.26873L10.0519 7.25311L10.0582 7.24686L10.0613 7.24373L10.0634 7.24165L10.3634 6.94373C10.8092 6.49894 10.8717 5.76248 10.4519 5.20103L9.13841 3.44686Z" fill="#3498DB"/>
</svg>
