<svg width="30" height="31" viewBox="0 0 30 31" fill="none" xmlns="http://www.w3.org/2000/svg">
<g id="ph:phone">
<path id="Vector" d="M26.059 19.3476L20.5383 16.8738L20.5231 16.8668C20.2364 16.7442 19.9238 16.695 19.6134 16.7236C19.303 16.7523 19.0046 16.8579 18.7453 17.0308C18.7148 17.051 18.6854 17.0729 18.6574 17.0964L15.8051 19.5281C13.998 18.6503 12.1324 16.7988 11.2547 15.0152L13.6898 12.1195C13.7133 12.0902 13.7355 12.0609 13.7566 12.0293C13.9259 11.7706 14.0286 11.4742 14.0556 11.1663C14.0826 10.8583 14.033 10.5485 13.9113 10.2644V10.2503L11.4305 4.72027C11.2696 4.3491 10.993 4.0399 10.642 3.83883C10.291 3.63777 9.88436 3.55562 9.48281 3.60465C7.89489 3.8136 6.43732 4.59344 5.38235 5.79851C4.32737 7.00358 3.74713 8.55147 3.75 10.1531C3.75 19.4578 11.3203 27.0281 20.625 27.0281C22.2266 27.031 23.7745 26.4507 24.9796 25.3957C26.1846 24.3408 26.9645 22.8832 27.1734 21.2953C27.2226 20.8939 27.1406 20.4873 26.9397 20.1363C26.7389 19.7853 26.4299 19.5087 26.059 19.3476ZM20.625 25.1531C16.6481 25.1487 12.8353 23.567 10.0232 20.7549C7.21109 17.9428 5.62935 14.13 5.625 10.1531C5.62059 9.00873 6.03288 7.90191 6.78485 7.0393C7.53683 6.1767 8.57708 5.6173 9.71133 5.46558C9.71086 5.47026 9.71086 5.47497 9.71133 5.47965L12.1723 10.9875L9.75 13.8867C9.72537 13.9149 9.70303 13.9451 9.68321 13.9769C9.50686 14.2475 9.4034 14.5591 9.38287 14.8814C9.36234 15.2038 9.42543 15.526 9.56602 15.8168C10.6277 17.9882 12.8156 20.1597 15.0105 21.2203C15.3035 21.3595 15.6275 21.4205 15.951 21.397C16.2745 21.3736 16.5864 21.2667 16.8563 21.0867C16.8864 21.0665 16.9154 21.0446 16.943 21.0211L19.7918 18.5906L25.2996 21.0574H25.3125C25.1626 22.1932 24.6041 23.2356 23.7413 23.9894C22.8785 24.7433 21.7707 25.1569 20.625 25.1531Z" fill="#F8F9FA"/>
</g>
</svg>
