<svg width="34" height="32" viewBox="0 0 34 32" fill="none" xmlns="http://www.w3.org/2000/svg">
<path d="M6.58325 31.5833V27.4167H21.3749C23.5624 27.4167 25.4635 26.7222 27.078 25.3333C28.6926 23.9444 29.4999 22.2083 29.4999 20.125C29.4999 18.0417 28.6926 16.3055 27.078 14.9167C25.4635 13.5278 23.5624 12.8333 21.3749 12.8333H8.24992L13.6666 18.25L10.7499 21.1667L0.333252 10.75L10.7499 0.333328L13.6666 3.24999L8.24992 8.66666H21.3749C24.743 8.66666 27.6336 9.76041 30.0468 11.9479C32.46 14.1354 33.6666 16.8611 33.6666 20.125C33.6666 23.3889 32.46 26.1146 30.0468 28.3021C27.6336 30.4896 24.743 31.5833 21.3749 31.5833H6.58325Z" fill="#3498DB"/>
</svg>
