<svg width="46" height="49" viewBox="0 0 46 49" fill="none" xmlns="http://www.w3.org/2000/svg">
<path id="Vector" d="M42.6977 33.2918C39.6102 33.2918 36.6231 32.7596 33.8368 31.8018C32.9583 31.4825 31.9793 31.7219 31.3016 32.4403L27.3606 37.682C20.2569 34.09 13.605 27.3051 10.0657 19.509L14.9605 15.0922C15.6382 14.3472 15.8391 13.3095 15.5629 12.3782C14.6342 9.42476 14.1573 6.25845 14.1573 2.98572C14.1573 1.5489 13.0277 0.351562 11.6722 0.351562H2.98708C1.6316 0.351562 0 0.990145 0 2.98572C0 27.7042 19.4035 48.2453 42.6977 48.2453C44.4799 48.2453 45.1827 46.569 45.1827 45.1056V35.9259C45.1827 34.4891 44.0532 33.2918 42.6977 33.2918Z" fill="#2C3E50"/>
</svg>
