<svg width="44" height="44" viewBox="0 0 44 44" fill="none" xmlns="http://www.w3.org/2000/svg">
<path d="M22 22C18.975 22 16.3854 20.9229 14.2313 18.7688C12.0771 16.6146 11 14.025 11 11C11 7.975 12.0771 5.38542 14.2313 3.23125C16.3854 1.07708 18.975 0 22 0C25.025 0 27.6146 1.07708 29.7688 3.23125C31.9229 5.38542 33 7.975 33 11C33 14.025 31.9229 16.6146 29.7688 18.7688C27.6146 20.9229 25.025 22 22 22ZM0 44V36.3C0 34.7417 0.401042 33.3094 1.20312 32.0031C2.00521 30.6969 3.07083 29.7 4.4 29.0125C7.24167 27.5917 10.1292 26.526 13.0625 25.8156C15.9958 25.1052 18.975 24.75 22 24.75C25.025 24.75 28.0042 25.1052 30.9375 25.8156C33.8708 26.526 36.7583 27.5917 39.6 29.0125C40.9292 29.7 41.9948 30.6969 42.7969 32.0031C43.599 33.3094 44 34.7417 44 36.3V44H0ZM5.5 38.5H38.5V36.3C38.5 35.7958 38.374 35.3375 38.1219 34.925C37.8698 34.5125 37.5375 34.1917 37.125 33.9625C34.65 32.725 32.1521 31.7969 29.6313 31.1781C27.1104 30.5594 24.5667 30.25 22 30.25C19.4333 30.25 16.8896 30.5594 14.3688 31.1781C11.8479 31.7969 9.35 32.725 6.875 33.9625C6.4625 34.1917 6.13021 34.5125 5.87813 34.925C5.62604 35.3375 5.5 35.7958 5.5 36.3V38.5ZM22 16.5C23.5125 16.5 24.8073 15.9615 25.8844 14.8844C26.9615 13.8073 27.5 12.5125 27.5 11C27.5 9.4875 26.9615 8.19271 25.8844 7.11563C24.8073 6.03854 23.5125 5.5 22 5.5C20.4875 5.5 19.1927 6.03854 18.1156 7.11563C17.0385 8.19271 16.5 9.4875 16.5 11C16.5 12.5125 17.0385 13.8073 18.1156 14.8844C19.1927 15.9615 20.4875 16.5 22 16.5Z" fill="#3498DB"/>
</svg>
