<svg width="250" height="250" viewBox="0 0 250 250" fill="none" xmlns="http://www.w3.org/2000/svg">
<path id="Vector" d="M25 250C18.125 250 12.2396 247.552 7.34375 242.656C2.44792 237.76 0 231.875 0 225V87.5C0 80.625 2.44792 74.7396 7.34375 69.8438C12.2396 64.9479 18.125 62.5 25 62.5H87.5V25C87.5 18.125 89.9479 12.2396 94.8438 7.34375C99.7396 2.44792 105.625 0 112.5 0H137.5C144.375 0 150.26 2.44792 155.156 7.34375C160.052 12.2396 162.5 18.125 162.5 25V62.5H225C231.875 62.5 237.76 64.9479 242.656 69.8438C247.552 74.7396 250 80.625 250 87.5V225C250 231.875 247.552 237.76 242.656 242.656C237.76 247.552 231.875 250 225 250H25ZM25 225H225V87.5H162.5C162.5 94.375 160.052 100.26 155.156 105.156C150.26 110.052 144.375 112.5 137.5 112.5H112.5C105.625 112.5 99.7396 110.052 94.8438 105.156C89.9479 100.26 87.5 94.375 87.5 87.5H25V225ZM50 200H125V194.375C125 190.833 124.01 187.552 122.031 184.531C120.052 181.51 117.292 179.167 113.75 177.5C109.583 175.625 105.365 174.219 101.094 173.281C96.8229 172.344 92.2917 171.875 87.5 171.875C82.7083 171.875 78.1771 172.344 73.9062 173.281C69.6354 174.219 65.4167 175.625 61.25 177.5C57.7083 179.167 54.9479 181.51 52.9688 184.531C50.9896 187.552 50 190.833 50 194.375V200ZM150 181.25H200V162.5H150V181.25ZM87.5 162.5C92.7083 162.5 97.1354 160.677 100.781 157.031C104.427 153.385 106.25 148.958 106.25 143.75C106.25 138.542 104.427 134.115 100.781 130.469C97.1354 126.823 92.7083 125 87.5 125C82.2917 125 77.8646 126.823 74.2188 130.469C70.5729 134.115 68.75 138.542 68.75 143.75C68.75 148.958 70.5729 153.385 74.2188 157.031C77.8646 160.677 82.2917 162.5 87.5 162.5ZM150 143.75H200V125H150V143.75ZM112.5 87.5H137.5V25H112.5V87.5Z" fill="#3498DB"/>
</svg>
