<svg width="32" height="32" viewBox="0 0 32 32" fill="none" xmlns="http://www.w3.org/2000/svg">
<g id="visibility_24dp_E8EAED_FILL0_wght400_GRAD0_opsz24 1">
<path id="Vector" d="M15.9997 21.3333C17.6663 21.3333 19.083 20.75 20.2497 19.5833C21.4163 18.4167 21.9997 17 21.9997 15.3333C21.9997 13.6667 21.4163 12.25 20.2497 11.0833C19.083 9.91668 17.6663 9.33334 15.9997 9.33334C14.333 9.33334 12.9163 9.91668 11.7497 11.0833C10.583 12.25 9.99967 13.6667 9.99967 15.3333C9.99967 17 10.583 18.4167 11.7497 19.5833C12.9163 20.75 14.333 21.3333 15.9997 21.3333ZM15.9997 18.9333C14.9997 18.9333 14.1497 18.5833 13.4497 17.8833C12.7497 17.1833 12.3997 16.3333 12.3997 15.3333C12.3997 14.3333 12.7497 13.4833 13.4497 12.7833C14.1497 12.0833 14.9997 11.7333 15.9997 11.7333C16.9997 11.7333 17.8497 12.0833 18.5497 12.7833C19.2497 13.4833 19.5997 14.3333 19.5997 15.3333C19.5997 16.3333 19.2497 17.1833 18.5497 17.8833C17.8497 18.5833 16.9997 18.9333 15.9997 18.9333ZM15.9997 25.3333C12.7552 25.3333 9.79967 24.4278 7.13301 22.6167C4.46634 20.8056 2.53301 18.3778 1.33301 15.3333C2.53301 12.2889 4.46634 9.86112 7.13301 8.05001C9.79967 6.2389 12.7552 5.33334 15.9997 5.33334C19.2441 5.33334 22.1997 6.2389 24.8663 8.05001C27.533 9.86112 29.4663 12.2889 30.6663 15.3333C29.4663 18.3778 27.533 20.8056 24.8663 22.6167C22.1997 24.4278 19.2441 25.3333 15.9997 25.3333ZM15.9997 22.6667C18.5108 22.6667 20.8163 22.0056 22.9163 20.6833C25.0163 19.3611 26.6219 17.5778 27.733 15.3333C26.6219 13.0889 25.0163 11.3056 22.9163 9.98334C20.8163 8.66112 18.5108 8.00001 15.9997 8.00001C13.4886 8.00001 11.183 8.66112 9.08301 9.98334C6.98301 11.3056 5.37745 13.0889 4.26634 15.3333C5.37745 17.5778 6.98301 19.3611 9.08301 20.6833C11.183 22.0056 13.4886 22.6667 15.9997 22.6667Z" fill="#2C3E50"/>
</g>
</svg>
